<?xml version="1.0" encoding="iso-8859-1"?>
<!-- Generator: Adobe Illustrator 16.0.4, SVG Export Plug-In . SVG Version: 6.00 Build 0)  -->
<!DOCTYPE svg PUBLIC "-//W3C//DTD SVG 1.1//EN" "http://www.w3.org/Graphics/SVG/1.1/DTD/svg11.dtd">
<svg version="1.1" id="Layer_1" xmlns="http://www.w3.org/2000/svg" xmlns:xlink="http://www.w3.org/1999/xlink" x="0px" y="0px"
	 width="469.67px" height="102.217px" viewBox="0 0 469.67 102.217" style="enable-background:new 0 0 469.67 102.217;"
	 xml:space="preserve">
<g>
	<g>
		<path style="fill:#FEBC1D;" d="M97.097,84.481c-1.526,0.123-3.117,0.26-4.771,0.406c-1.654,0.146-3.335,0.297-5.043,0.451
			c-1.708,0.156-3.431,0.311-5.166,0.465c-1.736,0.154-3.43,0.309-5.084,0.465c-0.582,0.648-1.145,1.334-1.69,2.053
			c-0.545,0.719-1.054,1.488-1.527,2.309c-0.381,0.617-0.686,1.279-0.913,1.982c-0.228,0.705-0.359,1.393-0.395,2.064
			c-0.037,0.674,0.045,1.301,0.245,1.881c0.2,0.58,0.545,1.062,1.036,1.449c0.49,0.387,1.14,0.652,1.949,0.801
			c0.809,0.146,1.813,0.111,3.012-0.105c1.291-0.201,2.608-0.572,3.953-1.113s2.676-1.16,3.994-1.855
			c1.317-0.695,2.608-1.428,3.871-2.193c1.263-0.766,2.458-1.473,3.584-2.121l2.617-0.186c-1.454,0.818-2.876,1.658-4.266,2.516
			c-1.39,0.859-2.821,1.684-4.293,2.471c-1.472,0.789-2.931,1.498-4.375,2.123c-1.445,0.627-2.985,1.086-4.621,1.381
			c-1.254,0.264-2.435,0.312-3.543,0.15c-1.109-0.162-2.049-0.51-2.821-1.043c-0.773-0.535-1.332-1.234-1.677-2.1
			c-0.345-0.867-0.382-1.879-0.109-3.039c0.327-1.361,0.845-2.635,1.554-3.816c0.709-1.184,1.536-2.332,2.48-3.445
			c-0.618,0.061-1.222,0.115-1.812,0.162c-0.591,0.047-1.177,0.092-1.758,0.139c-0.364-0.217-0.727-0.418-1.09-0.604
			c-0.364-0.186-0.673-0.34-0.927-0.463l6.842-0.58c0.582-0.604,1.181-1.199,1.799-1.787c0.618-0.588,1.245-1.176,1.881-1.764
			c1.09-0.988,2.163-1.914,3.217-2.771c1.054-0.859,2.117-1.689,3.189-2.494c1.072-0.805,2.158-1.598,3.258-2.379
			c1.099-0.779,2.239-1.588,3.421-2.424c-1.472,0.078-3.062,0.186-4.771,0.324c-1.708,0.141-3.662,0.334-5.861,0.58
			c-1.563,0.172-3.131,0.381-4.703,0.627c-1.572,0.248-3.08,0.533-4.525,0.859c-1.445,0.324-2.794,0.699-4.048,1.125
			c-1.254,0.426-2.344,0.908-3.271,1.449s-1.667,1.141-2.222,1.799c-0.555,0.656-0.841,1.389-0.859,2.191
			c0,0.264,0.059,0.549,0.177,0.859c0.118,0.309,0.309,0.629,0.573,0.963c0.263,0.332,0.604,0.664,1.022,0.996
			c0.418,0.334,0.917,0.646,1.5,0.939l-2.181-0.045c-0.709-0.402-1.291-0.891-1.745-1.463c-0.454-0.57-0.708-1.252-0.763-2.041
			c-0.054-0.943,0.182-1.805,0.709-2.586c0.527-0.781,1.272-1.488,2.235-2.123c0.963-0.635,2.117-1.199,3.462-1.693
			c1.345-0.496,2.803-0.936,4.375-1.322s3.221-0.717,4.948-0.986c1.727-0.271,3.462-0.508,5.207-0.709
			c2.362-0.262,4.461-0.467,6.297-0.613c1.835-0.146,3.517-0.252,5.043-0.314c1.527-0.061,2.944-0.096,4.252-0.104
			c1.309-0.008,2.622-0.004,3.939,0.012c1.317,0.016,2.689,0.031,4.116,0.047c1.426,0.016,3.021,0.008,4.784-0.023l-1.527,1.205
			c-1.472-0.014-2.831-0.029-4.075-0.045c-1.245-0.016-2.431-0.031-3.558-0.047s-2.222-0.02-3.285-0.012s-2.149,0.027-3.258,0.059
			c-2.453,1.748-4.866,3.518-7.237,5.312c-2.372,1.793-4.657,3.682-6.856,5.66c-0.455,0.418-0.904,0.832-1.349,1.242
			c-0.446,0.408-0.886,0.838-1.322,1.287c2.817-0.264,5.625-0.521,8.423-0.777c2.798-0.256,5.47-0.49,8.015-0.707L97.097,84.481z"/>
		<path style="fill:#FEBC1D;" d="M109.146,86.083c0.091-0.125,0.177-0.221,0.259-0.291c0.082-0.07,0.141-0.143,0.177-0.221
			c-0.037-0.217,0.027-0.459,0.191-0.73c0.164-0.27,0.354-0.518,0.572-0.742c0.218-0.225,0.445-0.41,0.682-0.557
			c0.236-0.146,0.418-0.205,0.545-0.174c0.127,0.031,0.213,0.1,0.259,0.209c0.045,0.107,0.055,0.24,0.027,0.395
			s-0.078,0.32-0.15,0.498c-0.073,0.178-0.164,0.344-0.273,0.498c-0.109,0.186-0.227,0.346-0.354,0.477
			c-0.127,0.131-0.228,0.221-0.3,0.266c-0.055,0.156-0.027,0.318,0.082,0.488s0.291,0.248,0.545,0.232
			c0.327-0.016,0.663-0.062,1.008-0.141c0.345-0.076,0.69-0.17,1.036-0.277c0.345-0.107,0.677-0.225,0.995-0.348
			c0.318-0.125,0.631-0.232,0.941-0.326c0,0.016-0.046,0.082-0.137,0.197c-0.091,0.117-0.195,0.248-0.313,0.395
			c-0.118,0.148-0.236,0.287-0.354,0.418c-0.119,0.131-0.187,0.213-0.205,0.244c-0.164,0.123-0.459,0.275-0.886,0.451
			c-0.427,0.18-0.881,0.314-1.363,0.406c-0.482,0.094-0.927,0.105-1.336,0.035c-0.409-0.068-0.677-0.289-0.804-0.66
			c-0.509,0.463-1.045,0.943-1.608,1.438c-0.563,0.496-1.104,0.971-1.622,1.428c-0.518,0.455-1,0.865-1.445,1.229
			c-0.446,0.363-0.804,0.639-1.077,0.824c-0.164,0.092-0.405,0.225-0.723,0.395s-0.659,0.316-1.022,0.439
			c-0.364,0.125-0.713,0.191-1.05,0.197c-0.336,0.01-0.604-0.096-0.804-0.312c-0.291-0.355-0.341-0.838-0.15-1.449
			s0.55-1.266,1.077-1.961c0.581-0.773,1.304-1.586,2.167-2.436c0.863-0.852,1.758-1.609,2.685-2.273
			c0.018-0.016,0.127-0.027,0.327-0.035c0.2-0.008,0.409-0.012,0.627-0.012s0.418,0.008,0.6,0.023s0.272,0.039,0.272,0.068
			c-0.509,0.295-1.036,0.666-1.581,1.115c-0.545,0.447-1.059,0.904-1.54,1.367c-0.481,0.465-0.909,0.902-1.281,1.312
			c-0.373,0.408-0.641,0.707-0.804,0.893c-0.164,0.217-0.332,0.441-0.504,0.672c-0.173,0.232-0.323,0.457-0.45,0.674
			c-0.127,0.217-0.218,0.418-0.272,0.604s-0.055,0.332,0,0.439c0.109,0.172,0.427,0.098,0.954-0.221
			c0.527-0.316,1.154-0.76,1.881-1.334c0.727-0.57,1.495-1.205,2.304-1.902C107.76,87.311,108.492,86.67,109.146,86.083z"/>
		<path style="fill:#FEBC1D;" d="M114.843,89.864c-0.2,0.371-0.323,0.715-0.368,1.031c-0.046,0.318,0.022,0.568,0.204,0.754
			c0.127,0.141,0.382,0.197,0.763,0.174c0.382-0.021,0.754-0.08,1.118-0.174c0.437-0.139,0.891-0.312,1.363-0.521
			c0.472-0.209,0.945-0.441,1.417-0.695c0.472-0.256,0.945-0.523,1.417-0.801c0.472-0.279,0.917-0.549,1.336-0.812l0.245,0.928
			c-0.455,0.279-1.018,0.627-1.69,1.045c-0.673,0.418-1.381,0.809-2.126,1.172c-0.746,0.363-1.495,0.641-2.249,0.834
			c-0.754,0.193-1.431,0.197-2.031,0.012c-0.582-0.17-0.918-0.533-1.009-1.09s-0.009-1.191,0.246-1.902
			c0.164-0.434,0.44-0.951,0.832-1.555c0.39-0.604,0.854-1.188,1.39-1.752c0.536-0.564,1.135-1.062,1.799-1.496
			c0.664-0.432,1.35-0.711,2.059-0.836c0.436-0.061,0.794-0.025,1.077,0.105c0.281,0.131,0.477,0.312,0.586,0.545
			s0.136,0.492,0.082,0.777c-0.055,0.287-0.191,0.545-0.409,0.777c-0.272,0.277-0.65,0.58-1.131,0.904s-1.004,0.646-1.567,0.963
			c-0.563,0.318-1.141,0.615-1.731,0.893C115.874,89.422,115.333,89.663,114.843,89.864z M116.342,87.635
			c-0.091,0.125-0.182,0.24-0.273,0.35c-0.091,0.107-0.182,0.223-0.272,0.348c0.418-0.17,0.859-0.367,1.322-0.592
			s0.931-0.49,1.404-0.801c0.436-0.293,0.799-0.58,1.09-0.857c0.291-0.279,0.445-0.549,0.463-0.812
			c0.018-0.125-0.068-0.189-0.259-0.197s-0.459,0.072-0.804,0.244c-0.218,0.107-0.455,0.254-0.709,0.439
			c-0.527,0.418-0.927,0.762-1.199,1.033C116.833,87.059,116.578,87.342,116.342,87.635z"/>
		<path style="fill:#FEBC1D;" d="M131.771,92.229c-0.073-0.418,0.027-0.896,0.3-1.438s0.613-1.082,1.022-1.625
			c0.409-0.541,0.831-1.051,1.268-1.531c0.436-0.479,0.791-0.881,1.063-1.205c0.182-0.217,0.272-0.367,0.272-0.453
			c0-0.084-0.082-0.072-0.245,0.035c-0.637,0.434-1.34,0.955-2.113,1.566s-1.563,1.248-2.372,1.914
			c-0.809,0.664-1.618,1.314-2.426,1.947c-0.809,0.635-1.577,1.191-2.303,1.672c-0.182,0.076-0.364,0.068-0.545-0.023
			c-0.182-0.094-0.272-0.232-0.272-0.418c0.218-0.418,0.477-0.861,0.777-1.334c0.3-0.471,0.609-0.951,0.927-1.438
			c0.318-0.488,0.627-0.963,0.927-1.428s0.577-0.904,0.832-1.322c-0.2,0.154-0.377,0.297-0.532,0.43
			c-0.154,0.131-0.368,0.297-0.641,0.498c-0.272,0.201-0.645,0.461-1.118,0.777s-1.136,0.738-1.99,1.264l-0.272-0.996
			c1.581-0.959,2.835-1.857,3.762-2.691c0.927-0.836,1.672-1.523,2.235-2.064c0.2-0.217,0.409-0.375,0.627-0.477
			c0.218-0.1,0.413-0.146,0.586-0.139s0.304,0.061,0.396,0.162c0.091,0.1,0.1,0.236,0.027,0.406
			c-0.055,0.139-0.127,0.285-0.218,0.439c-0.091,0.156-0.182,0.311-0.272,0.465c-0.31,0.465-0.582,0.889-0.818,1.275
			c-0.236,0.387-0.463,0.758-0.682,1.113c-0.218,0.357-0.441,0.729-0.668,1.115s-0.486,0.811-0.777,1.275
			c0.4-0.34,0.904-0.758,1.513-1.252c0.608-0.496,1.24-0.998,1.895-1.51c0.654-0.51,1.286-0.984,1.895-1.426
			c0.608-0.441,1.122-0.77,1.54-0.986c0.309-0.154,0.613-0.258,0.913-0.312c0.3-0.055,0.55-0.047,0.75,0.023
			c0.2,0.068,0.331,0.217,0.395,0.439c0.063,0.225,0.014,0.531-0.15,0.916c-0.272,0.449-0.623,0.926-1.049,1.428
			c-0.427,0.502-0.845,0.994-1.254,1.473c-0.409,0.48-0.773,0.939-1.09,1.381c-0.318,0.441-0.514,0.832-0.586,1.172
			c0,0.17,0.136,0.209,0.409,0.115c0.054,0,0.291-0.111,0.708-0.336s0.895-0.49,1.431-0.801c0.536-0.309,1.063-0.609,1.581-0.904
			c0.518-0.293,0.886-0.51,1.104-0.65l0.136,1.021c-0.272,0.17-0.645,0.402-1.117,0.695c-0.473,0.295-0.964,0.592-1.472,0.895
			c-0.509,0.301-1.009,0.584-1.5,0.846c-0.491,0.264-0.899,0.441-1.227,0.533c-0.255,0.047-0.555,0.035-0.899-0.033
			C132.107,92.659,131.88,92.493,131.771,92.229z"/>
		<path style="fill:#FEBC1D;" d="M143.438,92.114c-0.508,0.264-1.014,0.479-1.512,0.648c-0.5,0.172-0.959,0.178-1.377,0.023
			c-0.309-0.107-0.481-0.316-0.518-0.625c-0.037-0.311,0.009-0.674,0.136-1.092c0.127-0.416,0.313-0.857,0.559-1.322
			c0.246-0.463,0.5-0.904,0.763-1.322s0.509-0.785,0.736-1.102s0.377-0.537,0.451-0.662c0.508-0.727,1.012-1.434,1.512-2.121
			c0.5-0.689,1.004-1.381,1.514-2.078c0.908-1.189,1.795-2.385,2.658-3.584c0.861-1.197,1.84-2.361,2.93-3.49
			c0.072-0.078,0.168-0.176,0.287-0.291c0.117-0.115,0.221-0.205,0.312-0.268c0.346-0.262,0.686-0.428,1.021-0.498
			s0.506-0.02,0.506,0.15c-0.037,0.109-0.184,0.334-0.438,0.674s-0.531,0.699-0.83,1.078c-0.301,0.379-0.582,0.73-0.846,1.057
			c-0.264,0.324-0.422,0.525-0.477,0.602c-1.02,1.223-1.955,2.391-2.809,3.504s-1.736,2.258-2.645,3.434
			c-0.654,0.867-1.271,1.725-1.854,2.576c-0.582,0.85-1.127,1.754-1.635,2.713c-0.419,0.883-0.555,1.412-0.409,1.59
			c0.146,0.178,0.571,0.066,1.28-0.336c0.273-0.125,0.619-0.303,1.037-0.533c0.418-0.232,0.844-0.48,1.281-0.744
			c0.436-0.262,0.85-0.514,1.24-0.754c0.391-0.238,0.695-0.428,0.912-0.568l0.109,1.021c-0.182,0.125-0.422,0.275-0.723,0.453
			c-0.299,0.178-0.627,0.371-0.98,0.58c-0.355,0.209-0.723,0.426-1.104,0.648C144.146,91.7,143.783,91.913,143.438,92.114z
			 M146.572,78.471h7.143l-0.627,0.998h-7.17L146.572,78.471z"/>
		<path style="fill:#FEBC1D;" d="M148.944,89.352c0.437-0.293,0.805-0.541,1.104-0.742s0.572-0.395,0.817-0.58
			s0.486-0.379,0.723-0.58c0.235-0.199,0.526-0.439,0.872-0.719c0.345-0.309,0.69-0.668,1.036-1.078
			c0.345-0.41,0.735-0.801,1.172-1.172c0.164-0.139,0.345-0.287,0.545-0.441s0.399-0.289,0.6-0.406
			c0.2-0.115,0.396-0.197,0.587-0.242c0.19-0.047,0.35-0.023,0.477,0.068c0.146,0.078,0.182,0.291,0.109,0.639
			c-0.073,0.348-0.392,0.777-0.954,1.287c-0.509,0.48-0.904,0.836-1.187,1.068c-0.281,0.23-0.495,0.408-0.64,0.533
			c-0.146,0.123-0.232,0.221-0.26,0.289c-0.027,0.07-0.041,0.182-0.041,0.336c0.019,0.125,0.087,0.26,0.205,0.406
			c0.118,0.148,0.231,0.283,0.341,0.406c0.254,0.355,0.513,0.682,0.776,0.975c0.264,0.295,0.396,0.627,0.396,0.998
			c0.563-0.34,1.122-0.676,1.677-1.01c0.554-0.332,0.977-0.584,1.268-0.754l0.136,1.021c-0.2,0.123-0.454,0.273-0.763,0.451
			c-0.31,0.18-0.646,0.377-1.009,0.592c-0.364,0.217-0.741,0.438-1.132,0.662s-0.768,0.43-1.131,0.615
			c-0.272,0.201-0.586,0.375-0.94,0.521s-0.718,0.248-1.091,0.301c-0.372,0.055-0.749,0.055-1.131,0
			c-0.382-0.053-0.736-0.174-1.063-0.359c-0.054-0.031-0.136-0.092-0.245-0.186c-0.109-0.092-0.2-0.205-0.272-0.336
			c-0.073-0.131-0.113-0.268-0.123-0.406c-0.009-0.139,0.05-0.277,0.178-0.418c0.108-0.107,0.336-0.158,0.682-0.15
			c0.345,0.008,0.663,0.158,0.954,0.453c0.235,0.262,0.572,0.379,1.008,0.348c0.437-0.031,0.809-0.154,1.118-0.371
			c0.2-0.154,0.322-0.326,0.368-0.512c0.045-0.186,0.068-0.385,0.068-0.602c0-0.154-0.051-0.326-0.15-0.512
			s-0.218-0.367-0.354-0.545c-0.136-0.178-0.269-0.34-0.396-0.486s-0.227-0.268-0.3-0.359c-0.036-0.031-0.067-0.074-0.095-0.129
			c-0.027-0.053-0.06-0.1-0.096-0.139c-0.037-0.039-0.091-0.055-0.164-0.047c-0.072,0.008-0.163,0.051-0.272,0.129
			c-0.49,0.34-0.945,0.668-1.362,0.984c-0.419,0.318-0.927,0.654-1.527,1.01L148.944,89.352z"/>
		<path style="fill:#FEBC1D;" d="M173.94,86.545c0.382-0.34,0.859-0.629,1.432-0.869s1.186-0.414,1.84-0.523
			c0.654-0.107,1.322-0.146,2.004-0.115s1.312,0.143,1.895,0.336c0.581,0.193,1.086,0.465,1.513,0.812s0.723,0.785,0.886,1.311
			c0.091,0.248,0.068,0.383-0.067,0.406c-0.137,0.023-0.269-0.043-0.396-0.197c-0.2-0.248-0.445-0.465-0.736-0.65
			s-0.609-0.344-0.954-0.475c-0.346-0.131-0.699-0.232-1.063-0.303c-0.363-0.068-0.708-0.127-1.035-0.174
			c-0.764-0.092-1.567-0.1-2.413-0.021c-0.845,0.076-1.612,0.293-2.303,0.648c0.636,0.016,1.23,0.125,1.785,0.324
			c0.554,0.201,1.022,0.477,1.404,0.824c0.381,0.348,0.658,0.754,0.831,1.219c0.173,0.463,0.204,0.975,0.096,1.531
			c-0.146,0.695-0.441,1.271-0.887,1.729c-0.445,0.455-0.972,0.803-1.581,1.043c-0.608,0.24-1.276,0.375-2.003,0.406
			c-0.728,0.031-1.44-0.027-2.141-0.174c-0.699-0.146-1.367-0.383-2.003-0.707c-0.637-0.326-1.163-0.721-1.581-1.184
			c-0.546-0.604-0.909-1.25-1.091-1.938s-0.213-1.369-0.096-2.041c0.119-0.674,0.368-1.318,0.75-1.938s0.858-1.172,1.432-1.658
			c0.572-0.488,1.235-0.887,1.989-1.195c0.754-0.311,1.55-0.488,2.386-0.533c-0.255-0.666-0.346-1.346-0.272-2.043
			c0.072-0.695,0.372-1.33,0.899-1.902c0.509-0.557,1.167-0.947,1.977-1.172c0.808-0.223,1.622-0.242,2.439-0.057
			c0.727,0.17,1.317,0.498,1.771,0.986c0.454,0.486,0.654,1.055,0.6,1.705c-0.036,0.355-0.149,0.676-0.34,0.963
			c-0.191,0.285-0.437,0.525-0.736,0.719s-0.641,0.324-1.022,0.395c-0.382,0.068-0.772,0.057-1.172-0.035
			c-0.109-0.016-0.187-0.062-0.231-0.139c-0.046-0.078-0.064-0.158-0.055-0.244c0.009-0.086,0.05-0.158,0.122-0.221
			c0.072-0.061,0.173-0.084,0.3-0.07c0.272,0.031,0.546,0.016,0.818-0.045c0.272-0.062,0.509-0.178,0.709-0.348
			c0.272-0.232,0.431-0.488,0.477-0.766c0.045-0.279,0.014-0.547-0.096-0.801c-0.108-0.256-0.286-0.488-0.531-0.697
			s-0.531-0.352-0.858-0.428c-0.527-0.125-1.05-0.137-1.567-0.035c-0.519,0.1-0.986,0.305-1.404,0.615
			c-0.637,0.494-1,1.09-1.09,1.785c-0.092,0.697-0.01,1.369,0.245,2.02c0.036,0.092,0.041,0.186,0.014,0.277
			c-0.027,0.094-0.105,0.148-0.232,0.162c-1.145,0.062-2.172,0.326-3.08,0.789c-0.909,0.465-1.636,1.1-2.181,1.902
			c-0.291,0.418-0.514,0.867-0.668,1.346c-0.154,0.48-0.231,0.963-0.231,1.451c0,0.486,0.091,0.967,0.272,1.438
			c0.182,0.473,0.463,0.9,0.845,1.287c0.309,0.311,0.687,0.584,1.132,0.824s0.913,0.43,1.403,0.568c0.491,0.139,1,0.221,1.527,0.244
			c0.526,0.023,1.026-0.02,1.499-0.129c0.545-0.123,1.036-0.352,1.472-0.684c0.437-0.332,0.768-0.711,0.995-1.137
			c0.227-0.426,0.327-0.877,0.3-1.357c-0.027-0.479-0.223-0.928-0.586-1.346c-0.346-0.387-0.777-0.664-1.295-0.836
			c-0.518-0.17-1.05-0.27-1.595-0.301c-0.346,0-0.577-0.039-0.695-0.115C173.591,86.932,173.668,86.778,173.94,86.545z"/>
		<path style="fill:#FEBC1D;" d="M197.276,84.852c-1.382-0.664-2.281-1.385-2.699-2.158s-0.49-1.539-0.218-2.297
			s0.821-1.469,1.648-2.135c0.827-0.664,1.795-1.221,2.903-1.67c3.126-1.268,6.348-2.273,9.664-3.016s6.655-1.295,10.018-1.658
			s6.72-0.572,10.073-0.627c3.353-0.055,6.628-0.027,9.827,0.082c0.672,0.016,1.508,0.057,2.508,0.127s2.021,0.182,3.066,0.336
			s2.031,0.363,2.959,0.627c0.926,0.264,1.662,0.596,2.207,0.998c0.418,0.324,0.691,0.707,0.818,1.148
			c0.127,0.439,0,0.963-0.381,1.564l-1.01-1.066c0.072-0.201,0.055-0.383-0.055-0.545s-0.258-0.303-0.449-0.418
			s-0.4-0.217-0.627-0.301c-0.227-0.086-0.422-0.152-0.586-0.197c-1.346-0.387-2.744-0.65-4.199-0.789
			c-1.453-0.139-2.889-0.248-4.307-0.324c-1.781-0.094-3.576-0.152-5.384-0.176c-1.809-0.021-3.64-0.002-5.493,0.059
			c-0.236,0.311-0.5,0.607-0.79,0.893c-0.291,0.287-0.563,0.584-0.818,0.895c-1.145,1.252-2.303,2.518-3.476,3.793
			c-1.172,1.275-2.308,2.582-3.407,3.92s-2.145,2.723-3.135,4.154c-0.991,1.43-1.895,2.934-2.713,4.512
			c-0.163,0.309-0.372,0.691-0.627,1.148s-0.486,0.955-0.695,1.496s-0.358,1.113-0.449,1.717s-0.051,1.207,0.123,1.811
			c0.172,0.602,0.508,1.197,1.008,1.785s1.24,1.129,2.222,1.625l-2.753-0.371c-0.654-0.465-1.149-0.975-1.485-1.531
			c-0.337-0.557-0.546-1.137-0.627-1.74c-0.082-0.604-0.068-1.215,0.041-1.834c0.108-0.617,0.268-1.217,0.477-1.797
			s0.445-1.125,0.709-1.637c0.263-0.51,0.513-0.965,0.749-1.367c0.891-1.531,1.836-3.01,2.836-4.432
			c0.999-1.424,2.039-2.811,3.121-4.164c1.081-1.354,2.198-2.684,3.353-3.99c1.154-1.309,2.331-2.619,3.53-3.934
			c0.127-0.154,0.254-0.301,0.382-0.441c0.127-0.139,0.263-0.285,0.409-0.439c-3.381,0.17-6.716,0.494-10.005,0.975
			c-3.289,0.479-6.488,1.152-9.596,2.018c-0.763,0.217-1.545,0.449-2.344,0.695c-0.8,0.248-1.595,0.527-2.386,0.836
			c-0.79,0.311-1.55,0.654-2.276,1.033s-1.39,0.799-1.989,1.264c-0.728,0.572-1.109,1.121-1.146,1.646
			c-0.036,0.527,0.137,1.029,0.519,1.508c0.381,0.48,0.89,0.941,1.526,1.381c0.636,0.441,1.271,0.863,1.908,1.266L197.276,84.852z"
			/>
		<path style="fill:#FEBC1D;" d="M234.158,84.434c0.145,0.078,0.24,0.193,0.286,0.348c0.045,0.156,0.045,0.326,0,0.512
			c-0.046,0.186-0.142,0.379-0.286,0.58c-0.146,0.201-0.327,0.395-0.546,0.58c-0.2,0.031-0.413,0.049-0.641,0.057
			s-0.449,0.012-0.667,0.012c0.272-0.246,0.453-0.479,0.545-0.695c0.091-0.217,0.091-0.387,0-0.51
			c-0.092-0.125-0.269-0.188-0.532-0.188s-0.613,0.094-1.049,0.279c-0.291,0.125-0.563,0.248-0.818,0.371
			c-0.254,0.125-0.509,0.264-0.763,0.418c-0.382,0.232-0.741,0.473-1.077,0.719c-0.336,0.248-0.687,0.51-1.05,0.789
			c-0.127,0.107-0.358,0.332-0.694,0.672c-0.337,0.342-0.664,0.713-0.981,1.115c-0.318,0.402-0.568,0.789-0.75,1.16
			s-0.182,0.641,0,0.811c0.109,0.109,0.281,0.133,0.518,0.07s0.5-0.174,0.791-0.336c0.29-0.162,0.608-0.359,0.954-0.592
			c0.345-0.232,0.682-0.473,1.009-0.719c0.327-0.248,0.654-0.512,0.981-0.789c0.327-0.279,0.636-0.549,0.927-0.812
			c0.29-0.264,0.559-0.51,0.804-0.742s0.45-0.434,0.613-0.604l1.418,0.07c-0.255,0.217-0.514,0.455-0.777,0.719
			s-0.55,0.533-0.858,0.812c-0.255,0.277-0.527,0.621-0.817,1.031c-0.291,0.41-0.523,0.777-0.695,1.102
			c-0.173,0.326-0.245,0.566-0.219,0.721c0.027,0.154,0.241,0.123,0.641-0.094c0.236-0.139,0.555-0.324,0.954-0.557
			c0.4-0.232,0.818-0.471,1.254-0.719c0.437-0.248,0.854-0.484,1.255-0.707c0.399-0.225,0.708-0.406,0.927-0.547l0.136,1.021
			c-0.272,0.17-0.646,0.398-1.117,0.684c-0.473,0.287-0.968,0.574-1.486,0.859c-0.518,0.287-1.026,0.557-1.526,0.812
			c-0.5,0.254-0.913,0.428-1.24,0.521c-0.382,0.123-0.668,0.154-0.858,0.092c-0.191-0.061-0.31-0.18-0.354-0.359
			c-0.046-0.178-0.037-0.395,0.027-0.648c0.063-0.256,0.149-0.514,0.259-0.777c-0.2,0.139-0.387,0.275-0.559,0.406
			c-0.173,0.131-0.351,0.252-0.532,0.359c-0.146,0.092-0.377,0.225-0.694,0.395c-0.318,0.17-0.659,0.316-1.022,0.439
			c-0.364,0.125-0.714,0.191-1.05,0.197c-0.336,0.01-0.604-0.096-0.804-0.312c-0.236-0.277-0.318-0.641-0.246-1.09
			c0.073-0.449,0.264-0.936,0.573-1.463c0.309-0.525,0.713-1.066,1.213-1.623c0.499-0.557,1.05-1.082,1.649-1.578
			c0.581-0.463,1.194-0.885,1.84-1.264c0.645-0.379,1.276-0.682,1.895-0.904c0.617-0.225,1.208-0.352,1.771-0.383
			S233.739,84.217,234.158,84.434z"/>
		<path style="fill:#FEBC1D;" d="M239.72,92.114c-0.51,0.264-1.014,0.479-1.514,0.648c-0.5,0.172-0.959,0.178-1.377,0.023
			c-0.309-0.107-0.48-0.316-0.518-0.625c-0.037-0.311,0.01-0.674,0.137-1.092c0.127-0.416,0.312-0.857,0.559-1.322
			c0.246-0.463,0.5-0.904,0.764-1.322s0.508-0.785,0.736-1.102c0.227-0.316,0.377-0.537,0.449-0.662
			c0.508-0.727,1.014-1.434,1.514-2.121c0.498-0.689,1.004-1.381,1.512-2.078c0.908-1.189,1.795-2.385,2.658-3.584
			c0.863-1.197,1.84-2.361,2.93-3.49c0.074-0.078,0.168-0.176,0.287-0.291c0.117-0.115,0.223-0.205,0.314-0.268
			c0.344-0.262,0.686-0.428,1.021-0.498s0.504-0.02,0.504,0.15c-0.037,0.109-0.164,0.33-0.381,0.662
			c-0.219,0.332-0.455,0.684-0.709,1.055c-0.256,0.371-0.5,0.717-0.736,1.033s-0.381,0.506-0.436,0.568
			c-0.928,1.16-1.877,2.32-2.85,3.48s-1.949,2.342-2.93,3.549c-0.654,0.867-1.295,1.725-1.922,2.576
			c-0.627,0.85-1.186,1.748-1.678,2.689c-0.418,0.883-0.535,1.416-0.354,1.602s0.627,0.078,1.336-0.324
			c0.271-0.125,0.617-0.303,1.035-0.533c0.418-0.232,0.846-0.48,1.281-0.744c0.438-0.262,0.85-0.514,1.24-0.754
			c0.391-0.238,0.695-0.428,0.914-0.568l0.109,1.021c-0.182,0.125-0.424,0.275-0.723,0.453c-0.301,0.178-0.627,0.371-0.982,0.58
			c-0.354,0.209-0.723,0.426-1.104,0.648C240.429,91.7,240.063,91.913,239.72,92.114z"/>
		<path style="fill:#FEBC1D;" d="M246.644,89.864c-0.201,0.371-0.324,0.715-0.369,1.031c-0.045,0.318,0.023,0.568,0.205,0.754
			c0.127,0.141,0.381,0.197,0.764,0.174c0.381-0.021,0.754-0.08,1.117-0.174c0.436-0.139,0.891-0.312,1.363-0.521
			s0.943-0.441,1.416-0.695c0.473-0.256,0.945-0.523,1.418-0.801c0.473-0.279,0.918-0.549,1.336-0.812l0.246,0.928
			c-0.455,0.279-1.018,0.627-1.691,1.045c-0.672,0.418-1.381,0.809-2.125,1.172c-0.746,0.363-1.496,0.641-2.25,0.834
			s-1.43,0.197-2.031,0.012c-0.58-0.17-0.916-0.533-1.008-1.09s-0.01-1.191,0.246-1.902c0.162-0.434,0.439-0.951,0.83-1.555
			s0.855-1.188,1.391-1.752c0.537-0.564,1.137-1.062,1.799-1.496c0.664-0.432,1.35-0.711,2.059-0.836
			c0.436-0.061,0.795-0.025,1.076,0.105c0.283,0.131,0.479,0.312,0.588,0.545c0.107,0.232,0.135,0.492,0.08,0.777
			c-0.055,0.287-0.189,0.545-0.408,0.777c-0.273,0.277-0.65,0.58-1.131,0.904c-0.482,0.324-1.004,0.646-1.568,0.963
			c-0.562,0.318-1.141,0.615-1.73,0.893C247.675,89.422,247.134,89.663,246.644,89.864z M248.142,87.635
			c-0.09,0.125-0.182,0.24-0.271,0.35c-0.092,0.107-0.184,0.223-0.273,0.348c0.418-0.17,0.859-0.367,1.322-0.592
			s0.932-0.49,1.404-0.801c0.436-0.293,0.799-0.58,1.09-0.857c0.291-0.279,0.445-0.549,0.463-0.812
			c0.018-0.125-0.068-0.189-0.258-0.197c-0.191-0.008-0.459,0.072-0.805,0.244c-0.219,0.107-0.455,0.254-0.709,0.439
			c-0.527,0.418-0.926,0.762-1.199,1.033C248.632,87.059,248.378,87.342,248.142,87.635z"/>
		<path style="fill:#FEBC1D;" d="M263.571,92.229c-0.072-0.418,0.027-0.896,0.301-1.438c0.271-0.541,0.613-1.082,1.021-1.625
			c0.408-0.541,0.832-1.051,1.268-1.531c0.436-0.479,0.791-0.881,1.062-1.205c0.182-0.217,0.273-0.367,0.273-0.453
			c0-0.084-0.082-0.072-0.246,0.035c-0.637,0.434-1.34,0.955-2.111,1.566c-0.773,0.611-1.564,1.248-2.373,1.914
			c-0.809,0.664-1.617,1.314-2.426,1.947c-0.809,0.635-1.576,1.191-2.303,1.672c-0.182,0.076-0.365,0.068-0.545-0.023
			c-0.184-0.094-0.273-0.232-0.273-0.418c0.219-0.418,0.477-0.861,0.777-1.334c0.299-0.471,0.607-0.951,0.926-1.438
			c0.318-0.488,0.627-0.963,0.928-1.428c0.299-0.465,0.576-0.904,0.832-1.322c-0.201,0.154-0.379,0.297-0.533,0.43
			c-0.154,0.131-0.367,0.297-0.641,0.498c-0.271,0.201-0.645,0.461-1.117,0.777s-1.137,0.738-1.99,1.264l-0.271-0.996
			c1.58-0.959,2.834-1.857,3.762-2.691c0.926-0.836,1.672-1.523,2.234-2.064c0.201-0.217,0.41-0.375,0.627-0.477
			c0.219-0.1,0.414-0.146,0.586-0.139c0.174,0.008,0.305,0.061,0.396,0.162c0.09,0.1,0.1,0.236,0.027,0.406
			c-0.055,0.139-0.129,0.285-0.219,0.439c-0.092,0.156-0.182,0.311-0.273,0.465c-0.309,0.465-0.58,0.889-0.816,1.275
			s-0.465,0.758-0.682,1.113c-0.219,0.357-0.441,0.729-0.668,1.115c-0.229,0.387-0.486,0.811-0.777,1.275
			c0.4-0.34,0.904-0.758,1.514-1.252c0.607-0.496,1.24-0.998,1.895-1.51c0.654-0.51,1.285-0.984,1.895-1.426
			c0.607-0.441,1.121-0.77,1.539-0.986c0.309-0.154,0.613-0.258,0.914-0.312c0.299-0.055,0.549-0.047,0.75,0.023
			c0.199,0.068,0.33,0.217,0.395,0.439c0.064,0.225,0.014,0.531-0.15,0.916c-0.271,0.449-0.623,0.926-1.049,1.428
			c-0.428,0.502-0.846,0.994-1.254,1.473c-0.408,0.48-0.773,0.939-1.09,1.381c-0.318,0.441-0.514,0.832-0.586,1.172
			c0,0.17,0.135,0.209,0.408,0.115c0.055,0,0.291-0.111,0.709-0.336s0.895-0.49,1.432-0.801c0.535-0.309,1.062-0.609,1.58-0.904
			c0.518-0.293,0.887-0.51,1.104-0.65l0.137,1.021c-0.271,0.17-0.645,0.402-1.117,0.695c-0.473,0.295-0.963,0.592-1.473,0.895
			c-0.508,0.301-1.008,0.584-1.498,0.846c-0.492,0.264-0.9,0.441-1.229,0.533c-0.254,0.047-0.553,0.035-0.898-0.033
			C263.907,92.659,263.681,92.493,263.571,92.229z"/>
		<path style="fill:#FEBC1D;" d="M275.237,92.114c-0.508,0.264-1.014,0.479-1.512,0.648c-0.5,0.172-0.959,0.178-1.377,0.023
			c-0.309-0.107-0.482-0.316-0.518-0.625c-0.037-0.311,0.008-0.674,0.135-1.092c0.127-0.416,0.314-0.857,0.561-1.322
			c0.244-0.463,0.498-0.904,0.762-1.322s0.51-0.785,0.736-1.102s0.377-0.537,0.451-0.662c0.508-0.727,1.012-1.434,1.512-2.121
			c0.5-0.689,1.004-1.381,1.514-2.078c0.908-1.189,1.795-2.385,2.658-3.584c0.861-1.197,1.84-2.361,2.93-3.49
			c0.072-0.078,0.168-0.176,0.287-0.291c0.117-0.115,0.221-0.205,0.312-0.268c0.346-0.262,0.686-0.428,1.021-0.498
			s0.506-0.02,0.506,0.15c-0.037,0.109-0.184,0.334-0.438,0.674s-0.531,0.699-0.83,1.078c-0.301,0.379-0.582,0.73-0.846,1.057
			c-0.264,0.324-0.422,0.525-0.477,0.602c-1.02,1.223-1.955,2.391-2.809,3.504s-1.736,2.258-2.645,3.434
			c-0.654,0.867-1.271,1.725-1.854,2.576c-0.582,0.85-1.127,1.754-1.635,2.713c-0.418,0.883-0.555,1.412-0.41,1.59
			c0.146,0.178,0.572,0.066,1.281-0.336c0.273-0.125,0.619-0.303,1.037-0.533c0.418-0.232,0.844-0.48,1.281-0.744
			c0.436-0.262,0.85-0.514,1.24-0.754c0.391-0.238,0.695-0.428,0.912-0.568l0.109,1.021c-0.182,0.125-0.422,0.275-0.723,0.453
			c-0.299,0.178-0.627,0.371-0.98,0.58c-0.355,0.209-0.723,0.426-1.104,0.648C275.946,91.7,275.583,91.913,275.237,92.114z
			 M278.372,78.471h7.143l-0.627,0.998h-7.17L278.372,78.471z"/>
		<path style="fill:#FEBC1D;" d="M342.843,88.981c-0.91-0.309-1.84-0.605-2.795-0.893c-0.953-0.285-1.949-0.561-2.984-0.824
			c-0.6,0.789-1.137,1.582-1.609,2.379s-0.857,1.574-1.158,2.332c-0.299,0.758-0.486,1.48-0.559,2.168
			c-0.072,0.689,0,1.334,0.219,1.938c0.055,0.139,0.131,0.328,0.23,0.568s0.205,0.484,0.314,0.73
			c0.109,0.248,0.219,0.484,0.326,0.709c0.109,0.223,0.191,0.389,0.246,0.498l-1.689-0.766c-0.383-0.572-0.701-1.121-0.955-1.646
			c-0.254-0.527-0.354-1.045-0.299-1.555c0.109-1.393,0.49-2.719,1.145-3.979c0.654-1.262,1.426-2.502,2.316-3.725
			c-1.199-0.262-2.422-0.494-3.666-0.695s-2.494-0.363-3.748-0.488c-2.035,1.393-4.062,2.738-6.08,4.037
			c-2.016,1.299-3.971,2.451-5.859,3.457c-1.146,0.604-2.277,1.18-3.395,1.729s-2.24,1.047-3.367,1.496s-2.254,0.844-3.379,1.184
			c-1.127,0.34-2.264,0.604-3.408,0.789c-0.527,0.092-1.141,0.158-1.84,0.197c-0.699,0.037-1.428,0.035-2.182-0.012
			s-1.498-0.148-2.234-0.303s-1.418-0.379-2.045-0.672c-0.627-0.295-1.164-0.674-1.607-1.137c-0.447-0.465-0.75-1.029-0.914-1.693
			c-0.219-1.084-0.014-2.092,0.613-3.027s1.6-1.791,2.916-2.564c1.318-0.773,2.939-1.461,4.867-2.064
			c1.926-0.604,4.088-1.113,6.488-1.531c2.398-0.418,4.996-0.734,7.795-0.951s5.717-0.332,8.752-0.348
			c0.707,0,1.412,0.016,2.111,0.047c0.699,0.029,1.387,0.068,2.059,0.115c1.709-1.176,3.416-2.355,5.125-3.539
			c1.707-1.182,3.443-2.346,5.207-3.49c1.762-1.145,3.566-2.262,5.41-3.354c1.846-1.09,3.768-2.123,5.766-3.096
			c0.182,0.139,0.359,0.285,0.531,0.439c0.174,0.154,0.305,0.322,0.396,0.5c0.09,0.178,0.127,0.355,0.109,0.533
			c-0.02,0.178-0.129,0.352-0.328,0.521c-1.271,1.314-2.377,2.475-3.312,3.48s-1.789,1.945-2.562,2.818
			c-0.771,0.875-1.518,1.729-2.234,2.564c-0.719,0.834-1.496,1.74-2.332,2.713c-0.236,0.264-0.463,0.523-0.68,0.777
			c-0.219,0.256-0.428,0.516-0.627,0.777c0.816,0.201,1.57,0.395,2.262,0.58s1.299,0.348,1.826,0.488L342.843,88.981z
			 M314.983,92.323c1.908-1.053,3.752-2.143,5.533-3.271s3.553-2.289,5.316-3.48c-0.4-0.016-0.797-0.027-1.188-0.035
			s-0.775-0.012-1.158-0.012c-0.309,0-0.986,0.016-2.031,0.047s-2.316,0.094-3.816,0.186c-1.498,0.094-3.152,0.229-4.961,0.406
			s-3.625,0.414-5.451,0.707c-1.826,0.295-3.594,0.662-5.303,1.104c-1.709,0.439-3.207,0.967-4.498,1.576
			c-1.291,0.611-2.309,1.326-3.053,2.146c-0.746,0.82-1.072,1.756-0.98,2.807c0.035,0.48,0.23,0.891,0.586,1.23
			c0.354,0.34,0.799,0.623,1.336,0.846c0.535,0.225,1.131,0.395,1.785,0.512c0.654,0.115,1.309,0.193,1.963,0.232
			c0.654,0.037,1.271,0.045,1.854,0.021c0.58-0.021,1.062-0.072,1.445-0.15c0.98-0.186,2.025-0.451,3.135-0.801
			c1.107-0.348,2.221-0.742,3.338-1.182c1.119-0.441,2.203-0.914,3.258-1.416S314.11,92.801,314.983,92.323z M329.704,84.667
			c1.254,0.139,2.443,0.309,3.57,0.51s2.18,0.41,3.162,0.627l1.309-1.717c0.764-0.99,1.58-1.965,2.453-2.924s1.754-1.902,2.645-2.83
			s1.758-1.836,2.604-2.727c0.844-0.889,1.611-1.758,2.303-2.609c-1.672,0.928-3.59,2.076-5.752,3.445s-4.535,2.928-7.115,4.676
			L329.704,84.667z"/>
		<path style="fill:#FEBC1D;" d="M355.354,84.434c0.145,0.078,0.24,0.193,0.287,0.348c0.045,0.156,0.045,0.326,0,0.512
			c-0.047,0.186-0.143,0.379-0.287,0.58s-0.326,0.395-0.545,0.58c-0.201,0.031-0.414,0.049-0.641,0.057
			c-0.229,0.008-0.449,0.012-0.668,0.012c0.273-0.246,0.453-0.479,0.545-0.695s0.092-0.387,0-0.51
			c-0.092-0.125-0.268-0.188-0.531-0.188s-0.613,0.094-1.049,0.279c-0.691,0.311-1.336,0.654-1.936,1.033s-1.191,0.799-1.773,1.264
			c-0.127,0.107-0.357,0.332-0.693,0.672c-0.338,0.342-0.664,0.713-0.982,1.115s-0.568,0.789-0.75,1.16s-0.182,0.641,0,0.811
			c0.109,0.109,0.281,0.133,0.518,0.07s0.5-0.174,0.791-0.336s0.609-0.359,0.955-0.592c0.344-0.232,0.682-0.473,1.008-0.719
			c0.328-0.248,0.654-0.512,0.982-0.789c0.326-0.279,0.635-0.549,0.926-0.812s0.559-0.51,0.805-0.742
			c0.244-0.232,0.449-0.434,0.613-0.604l1.418,0.07c-0.438,0.402-0.918,0.85-1.445,1.346c-0.527,0.494-1.082,0.988-1.662,1.484
			c-0.4,0.449-0.797,0.939-1.188,1.473s-0.721,0.971-0.994,1.311l-0.273,0.348c1.4-0.742,2.75-1.477,4.049-2.203
			s2.402-1.445,3.312-2.158l0.027,1.207c-0.545,0.402-1.158,0.805-1.84,1.207s-1.4,0.811-2.154,1.229s-1.527,0.84-2.316,1.266
			c-0.791,0.424-1.578,0.854-2.359,1.287c-0.418,0.617-0.84,1.229-1.268,1.832c-0.426,0.604-0.885,1.191-1.375,1.764
			c-0.492,0.572-1.023,1.121-1.596,1.646s-1.223,1.014-1.949,1.463c-0.326,0.215-0.648,0.391-0.967,0.521s-0.596,0.193-0.832,0.186
			s-0.428-0.105-0.572-0.291s-0.219-0.486-0.219-0.904c0-0.449,0.137-0.9,0.41-1.357c0.271-0.455,0.635-0.9,1.09-1.334
			c0.455-0.432,0.967-0.857,1.539-1.275c0.574-0.418,1.154-0.809,1.746-1.172c0.59-0.363,1.168-0.703,1.73-1.021
			c0.562-0.316,1.062-0.59,1.5-0.822l1.58-2.02c-0.219,0.125-0.473,0.252-0.764,0.383c-0.291,0.133-0.586,0.232-0.885,0.303
			c-0.301,0.068-0.582,0.092-0.846,0.068c-0.264-0.021-0.477-0.127-0.641-0.312c-0.236-0.277-0.318-0.641-0.246-1.09
			c0.074-0.449,0.264-0.936,0.574-1.463c0.309-0.525,0.713-1.066,1.213-1.623c0.498-0.557,1.049-1.082,1.648-1.578
			c0.582-0.463,1.195-0.885,1.84-1.264s1.277-0.682,1.895-0.904c0.617-0.225,1.209-0.352,1.771-0.383
			C354.446,84.125,354.937,84.217,355.354,84.434z M343.552,98.168c0.271-0.34,0.545-0.676,0.816-1.01
			c0.273-0.332,0.537-0.668,0.791-1.008c-0.836,0.494-1.607,0.998-2.316,1.508s-1.326,1.027-1.854,1.555
			c-0.164,0.17-0.336,0.402-0.52,0.695c-0.18,0.293-0.309,0.549-0.381,0.766c-0.055,0.217-0.008,0.309,0.137,0.279
			c0.145-0.031,0.34-0.133,0.586-0.303s0.518-0.391,0.818-0.66c0.299-0.271,0.59-0.535,0.871-0.789
			c0.283-0.256,0.518-0.48,0.709-0.674S343.515,98.215,343.552,98.168z"/>
		<path style="fill:#FEBC1D;" d="M359.28,89.864c-0.201,0.371-0.324,0.715-0.369,1.031c-0.045,0.318,0.023,0.568,0.205,0.754
			c0.127,0.141,0.381,0.197,0.764,0.174c0.381-0.021,0.754-0.08,1.117-0.174c0.436-0.139,0.891-0.312,1.363-0.521
			s0.943-0.441,1.416-0.695c0.473-0.256,0.945-0.523,1.418-0.801c0.473-0.279,0.918-0.549,1.336-0.812l0.246,0.928
			c-0.455,0.279-1.018,0.627-1.691,1.045c-0.672,0.418-1.381,0.809-2.125,1.172c-0.746,0.363-1.496,0.641-2.25,0.834
			s-1.43,0.197-2.031,0.012c-0.58-0.17-0.916-0.533-1.008-1.09s-0.01-1.191,0.246-1.902c0.162-0.434,0.439-0.951,0.83-1.555
			s0.855-1.188,1.391-1.752c0.537-0.564,1.137-1.062,1.799-1.496c0.664-0.432,1.35-0.711,2.059-0.836
			c0.436-0.061,0.795-0.025,1.076,0.105c0.283,0.131,0.479,0.312,0.588,0.545c0.107,0.232,0.135,0.492,0.08,0.777
			c-0.055,0.287-0.189,0.545-0.408,0.777c-0.273,0.277-0.65,0.58-1.131,0.904c-0.482,0.324-1.004,0.646-1.568,0.963
			c-0.562,0.318-1.141,0.615-1.73,0.893C360.312,89.422,359.771,89.663,359.28,89.864z M360.778,87.635
			c-0.09,0.125-0.182,0.24-0.271,0.35c-0.092,0.107-0.184,0.223-0.273,0.348c0.418-0.17,0.859-0.367,1.322-0.592
			s0.932-0.49,1.404-0.801c0.436-0.293,0.799-0.58,1.09-0.857c0.291-0.279,0.445-0.549,0.463-0.812
			c0.018-0.125-0.068-0.189-0.258-0.197c-0.191-0.008-0.459,0.072-0.805,0.244c-0.219,0.107-0.455,0.254-0.709,0.439
			c-0.527,0.418-0.926,0.762-1.199,1.033C361.269,87.059,361.015,87.342,360.778,87.635z"/>
		<path style="fill:#FEBC1D;" d="M376.208,92.229c-0.072-0.418,0.027-0.896,0.301-1.438c0.271-0.541,0.613-1.082,1.021-1.625
			c0.408-0.541,0.832-1.051,1.268-1.531c0.436-0.479,0.791-0.881,1.062-1.205c0.182-0.217,0.273-0.367,0.273-0.453
			c0-0.084-0.082-0.072-0.246,0.035c-0.637,0.434-1.34,0.955-2.111,1.566c-0.773,0.611-1.564,1.248-2.373,1.914
			c-0.809,0.664-1.617,1.314-2.426,1.947c-0.809,0.635-1.576,1.191-2.303,1.672c-0.182,0.076-0.365,0.068-0.545-0.023
			c-0.184-0.094-0.273-0.232-0.273-0.418c0.219-0.418,0.477-0.861,0.777-1.334c0.299-0.471,0.607-0.951,0.926-1.438
			c0.318-0.488,0.627-0.963,0.928-1.428c0.299-0.465,0.576-0.904,0.832-1.322c-0.201,0.154-0.379,0.297-0.533,0.43
			c-0.154,0.131-0.367,0.297-0.641,0.498c-0.271,0.201-0.645,0.461-1.117,0.777s-1.137,0.738-1.99,1.264l-0.271-0.996
			c1.58-0.959,2.834-1.857,3.762-2.691c0.926-0.836,1.672-1.523,2.234-2.064c0.201-0.217,0.41-0.375,0.627-0.477
			c0.219-0.1,0.414-0.146,0.586-0.139c0.174,0.008,0.305,0.061,0.396,0.162c0.09,0.1,0.1,0.236,0.027,0.406
			c-0.055,0.139-0.129,0.285-0.219,0.439c-0.092,0.156-0.182,0.311-0.273,0.465c-0.309,0.465-0.58,0.889-0.816,1.275
			s-0.465,0.758-0.682,1.113c-0.219,0.357-0.441,0.729-0.668,1.115c-0.229,0.387-0.486,0.811-0.777,1.275
			c0.4-0.34,0.904-0.758,1.514-1.252c0.607-0.496,1.24-0.998,1.895-1.51c0.654-0.51,1.285-0.984,1.895-1.426
			c0.607-0.441,1.121-0.77,1.539-0.986c0.309-0.154,0.613-0.258,0.914-0.312c0.299-0.055,0.549-0.047,0.75,0.023
			c0.199,0.068,0.33,0.217,0.395,0.439c0.064,0.225,0.014,0.531-0.15,0.916c-0.271,0.449-0.623,0.926-1.049,1.428
			c-0.428,0.502-0.846,0.994-1.254,1.473c-0.408,0.48-0.773,0.939-1.09,1.381c-0.318,0.441-0.514,0.832-0.586,1.172
			c0,0.17,0.135,0.209,0.408,0.115c0.055,0,0.291-0.111,0.709-0.336s0.895-0.49,1.432-0.801c0.535-0.309,1.062-0.609,1.58-0.904
			c0.518-0.293,0.887-0.51,1.104-0.65l0.137,1.021c-0.271,0.17-0.645,0.402-1.117,0.695c-0.473,0.295-0.963,0.592-1.473,0.895
			c-0.508,0.301-1.008,0.584-1.498,0.846c-0.492,0.264-0.9,0.441-1.229,0.533c-0.254,0.047-0.553,0.035-0.898-0.033
			C376.544,92.659,376.317,92.493,376.208,92.229z"/>
		<path style="fill:#FEBC1D;" d="M391.364,86.545c-0.201,0.078-0.363,0.113-0.49,0.105c-0.129-0.008-0.301-0.012-0.52-0.012
			c0.072-0.094,0.182-0.225,0.328-0.395c0.145-0.17,0.258-0.322,0.34-0.453s0.1-0.221,0.055-0.268
			c-0.045-0.045-0.23,0.016-0.559,0.186c-0.309,0.109-0.723,0.365-1.24,0.766c-0.518,0.402-1.031,0.875-1.539,1.416
			c-0.51,0.541-0.951,1.117-1.322,1.729c-0.373,0.611-0.568,1.188-0.586,1.729c-0.037,0.494,0.754,0.494,2.371,0
			c0.98-0.355,1.949-0.773,2.902-1.254c0.955-0.479,1.867-0.98,2.74-1.508c0.09,0.125,0.182,0.248,0.271,0.371
			c0.092,0.125,0.191,0.248,0.301,0.371c-0.908,0.559-1.818,1.072-2.727,1.543c-0.908,0.473-1.898,0.918-2.971,1.334
			c-1.055,0.418-1.895,0.643-2.521,0.674s-1.086-0.078-1.377-0.324c-0.291-0.248-0.432-0.596-0.422-1.045s0.131-0.951,0.367-1.508
			c0.146-0.371,0.396-0.816,0.75-1.334s0.785-1.025,1.295-1.52c0.473-0.465,0.986-0.9,1.541-1.311
			c0.553-0.41,1.098-0.758,1.635-1.045c0.535-0.285,1.035-0.486,1.5-0.604c0.463-0.115,0.848-0.104,1.158,0.035
			c0.182,0.094,0.25,0.264,0.203,0.512c-0.045,0.246-0.154,0.502-0.326,0.766c-0.174,0.262-0.367,0.498-0.586,0.707
			S391.528,86.53,391.364,86.545z"/>
		<path style="fill:#FEBC1D;" d="M396.026,89.051c0.58-0.773,1.303-1.586,2.166-2.436c0.863-0.852,1.758-1.609,2.686-2.273
			c0.018-0.016,0.15-0.027,0.395-0.035c0.246-0.008,0.5-0.012,0.764-0.012s0.477,0.008,0.641,0.023s0.164,0.039,0,0.068
			c-0.49,0.295-1.008,0.666-1.553,1.115c-0.547,0.447-1.064,0.904-1.555,1.367c-0.49,0.465-0.922,0.902-1.295,1.312
			c-0.373,0.408-0.641,0.707-0.805,0.893c-0.162,0.217-0.332,0.441-0.504,0.672c-0.172,0.232-0.322,0.457-0.449,0.674
			s-0.219,0.418-0.273,0.604s-0.055,0.332,0,0.439c0.092,0.172,0.377,0.125,0.859-0.139c0.48-0.264,1.053-0.646,1.717-1.148
			s1.377-1.07,2.141-1.705s1.477-1.242,2.139-1.82c0.664-0.58,1.229-1.084,1.691-1.51c0.463-0.424,0.74-0.668,0.832-0.73h1.525
			c-0.254,0.232-0.6,0.549-1.035,0.951c-0.438,0.402-0.918,0.844-1.445,1.322c-0.527,0.48-1.082,0.979-1.662,1.498
			c-0.582,0.518-1.146,1.008-1.691,1.473c-0.217,0.232-0.436,0.482-0.654,0.754c-0.217,0.27-0.426,0.537-0.627,0.801
			c-0.199,0.262-0.391,0.518-0.572,0.766c-0.182,0.246-0.346,0.463-0.49,0.648c-0.037,0.031-0.055,0.055-0.055,0.07
			c1.309-0.695,2.576-1.377,3.803-2.041c1.227-0.666,2.295-1.293,3.203-1.881l0.164,1.115c-0.291,0.186-0.65,0.398-1.078,0.637
			c-0.426,0.24-0.895,0.492-1.402,0.754c-0.51,0.264-1.051,0.543-1.623,0.836s-1.141,0.604-1.703,0.928
			c-0.49,0.293-0.969,0.568-1.432,0.824c-0.463,0.254-0.904,0.506-1.322,0.754c-0.436,0.633-0.867,1.26-1.295,1.879
			c-0.426,0.619-0.891,1.221-1.391,1.809c-0.498,0.588-1.043,1.152-1.635,1.695c-0.59,0.541-1.25,1.043-1.977,1.508
			c-0.326,0.215-0.648,0.391-0.967,0.521s-0.596,0.193-0.832,0.186s-0.428-0.105-0.572-0.291s-0.219-0.486-0.219-0.904
			c0-0.355,0.123-0.73,0.369-1.125c0.244-0.395,0.477-0.738,0.695-1.031c0.254-0.389,0.621-0.785,1.104-1.195
			c0.48-0.41,1.035-0.828,1.662-1.254s1.314-0.854,2.059-1.287s1.518-0.873,2.316-1.322l1.309-1.693l0.082-0.094
			c-0.219,0.125-0.473,0.252-0.764,0.383c-0.291,0.133-0.586,0.232-0.885,0.303c-0.301,0.068-0.582,0.092-0.846,0.068
			c-0.264-0.021-0.477-0.127-0.641-0.312c-0.309-0.355-0.363-0.838-0.164-1.449C395.136,90.401,395.499,89.747,396.026,89.051z
			 M393.464,98.168c0.309-0.371,0.609-0.746,0.898-1.125c0.291-0.379,0.582-0.754,0.873-1.125c-0.781,0.465-1.527,0.955-2.236,1.473
			s-1.408,1.125-2.098,1.822c-0.164,0.17-0.336,0.402-0.52,0.695c-0.18,0.293-0.309,0.549-0.381,0.766
			c-0.055,0.217-0.008,0.309,0.137,0.279c0.145-0.031,0.34-0.133,0.586-0.303s0.518-0.391,0.818-0.66
			c0.299-0.271,0.59-0.535,0.871-0.789c0.283-0.256,0.518-0.48,0.709-0.674S393.427,98.215,393.464,98.168z"/>
	</g>
	<g>
		<g>
			<path style="fill:#FEBC1D;" d="M34.35,37.91c0,4.08-1.77,7.56-5.25,10.34c-3.42,2.74-7.63,4.129-12.52,4.129
				c-4.95,0-10.09-1.49-15.28-4.419l-0.51-0.29v-6.85l1.53,0.95c5.4,3.38,10.12,5.09,14.01,5.09c3.17,0,5.87-0.88,8.03-2.61
				c2.12-1.7,3.16-3.72,3.16-6.16c0-1.86-0.64-3.49-1.95-4.99c-1.33-1.53-4.17-3.01-8.43-4.41c-4.47-1.46-7.73-2.66-9.67-3.56
				c-2.05-0.95-3.81-2.33-5.24-4.09C0.75,19.21,0,16.86,0,14.03c0-3.91,1.77-7.28,5.26-10.01C8.68,1.35,12.83,0,17.61,0
				c4.62,0,9.25,1.07,13.77,3.18l0.57,0.27v6.44l-1.44-0.72c-4.85-2.43-9.05-3.66-12.49-3.66c-3.22,0-5.94,0.84-8.08,2.48
				c-2.09,1.61-3.1,3.53-3.1,5.87c0,1.66,0.59,3.12,1.8,4.47c1.25,1.38,4.01,2.76,8.2,4.11c4.4,1.41,7.66,2.61,9.7,3.56
				c2.15,1,3.99,2.47,5.49,4.37C33.57,32.32,34.35,34.86,34.35,37.91z"/>
		</g>
		<g>
			<path style="fill:#FEBC1D;" d="M115.09,7.55C109,2.54,101.49,0,92.75,0c-8.71,0-16.2,2.54-22.26,7.56
				c-6.12,5.06-9.23,11.33-9.23,18.64c0,7.29,3.11,13.55,9.23,18.62c6.06,5.01,13.55,7.56,22.26,7.56c8.74,0,16.25-2.549,22.34-7.56
				c6.15-5.07,9.27-11.33,9.27-18.62C124.36,18.89,121.24,12.62,115.09,7.55z M110.47,40.82c-4.74,4.01-10.64,6.04-17.55,6.04
				c-6.94,0-12.89-2.03-17.68-6.04c-4.81-4.02-7.14-8.8-7.14-14.62c0-5.83,2.33-10.62,7.14-14.65c4.79-4,10.74-6.04,17.68-6.04
				c6.91,0,12.81,2.03,17.55,6.04c4.75,4.02,7.06,8.82,7.06,14.65C117.53,32.02,115.22,36.8,110.47,40.82z"/>
		</g>
		<g>
			<polygon style="fill:#FEBC1D;" points="189.46,46.58 189.46,51.74 154.46,51.74 154.46,0.63 160.92,0.63 160.92,46.58 			"/>
		</g>
		<g>
			<path style="fill:#FEBC1D;" d="M264.31,0.63v27.79c0,7.6-2.38,13.56-7.069,17.73c-4.65,4.13-10.74,6.229-18.09,6.229
				c-7.32,0-13.4-2.08-18.05-6.16c-4.7-4.12-7.08-9.81-7.08-16.92V0.63h6.51v28.53c0,5.53,1.73,9.91,5.14,13
				c3.44,3.12,7.98,4.7,13.48,4.7c5.55,0,10.109-1.6,13.55-4.75c3.42-3.12,5.149-7.66,5.149-13.48v-28H264.31z"/>
		</g>
		<g>
			<path style="fill:#FEBC1D;" d="M327.06,37.91c0,4.08-1.77,7.56-5.25,10.34c-3.42,2.74-7.63,4.129-12.52,4.129
				c-4.94,0-10.09-1.49-15.28-4.419l-0.51-0.29v-6.85l1.53,0.95c5.399,3.38,10.12,5.09,14.01,5.09c3.17,0,5.87-0.88,8.03-2.61
				c2.12-1.7,3.16-3.72,3.16-6.16c0-1.86-0.641-3.49-1.95-4.99c-1.33-1.53-4.16-3.01-8.431-4.41c-4.47-1.46-7.72-2.66-9.67-3.56
				c-2.05-0.95-3.81-2.33-5.239-4.09c-1.471-1.83-2.221-4.18-2.221-7.01c0-3.91,1.771-7.28,5.25-10.01
				C301.39,1.35,305.54,0,310.32,0c4.62,0,9.25,1.07,13.77,3.18l0.58,0.27v6.44l-1.45-0.72c-4.85-2.43-9.05-3.66-12.479-3.66
				c-3.23,0-5.95,0.84-8.09,2.48c-2.091,1.61-3.101,3.53-3.101,5.87c0,1.66,0.59,3.12,1.811,4.47c1.25,1.38,4.01,2.76,8.189,4.11
				c4.4,1.41,7.66,2.61,9.7,3.56c2.15,1,3.99,2.47,5.49,4.37C326.28,32.32,327.06,34.86,327.06,37.91z"/>
		</g>
		<g>
			<polygon style="fill:#FEBC1D;" points="399.81,0.63 399.81,5.79 378.16,5.79 378.16,51.74 371.66,51.74 371.66,5.79 350.01,5.79 
				350.01,0.63 			"/>
		</g>
		<g>
			<g>
				<path style="fill:#FEBC1D;" d="M469.67,51.74h-6.95l-8.35-13.72l2.91,1.37c2.81,1.32,5.43,2.96,7.77,4.88l0.12,0.1L469.67,51.74
					z"/>
			</g>
			<g>
				<path style="fill:#FEBC1D;" d="M459.47,31.33l-2.649-1.1c-1.8-0.74-3.681-1.38-5.601-1.88l-0.41-0.11L440.05,9.15l-10.72,19.11
					l-0.42,0.11c-1.9,0.5-3.771,1.12-5.54,1.86l-2.66,1.1l17.561-31.05h3.64L459.47,31.33z"/>
			</g>
			<g>
				<path style="fill:#FEBC1D;" d="M425.78,38.03l-8.311,13.71h-6.96l4.5-7.37l0.12-0.1c2.34-1.91,4.94-3.55,7.74-4.87L425.78,38.03
					z"/>
			</g>
		</g>
	</g>
</g>
</svg>
